<mxfile host="Electron" modified="2023-05-17T16:02:33.654Z" agent="Mozilla/5.0 (Windows NT 10.0; Win64; x64) AppleWebKit/537.36 (KHTML, like Gecko) draw.io/21.2.8 Chrome/112.0.5615.165 Electron/24.2.0 Safari/537.36" etag="eO719aM6MyjAF_myHrV_" version="21.2.8" type="device">
  <diagram id="bpRwmGWlpcn__vaJsbh3" name="Page-1">
    <mxGraphModel dx="836" dy="1921" grid="1" gridSize="10" guides="1" tooltips="1" connect="1" arrows="1" fold="1" page="1" pageScale="1" pageWidth="850" pageHeight="1100" math="0" shadow="0">
      <root>
        <mxCell id="0" />
        <mxCell id="1" parent="0" />
        <mxCell id="4jUgr5Qq2yorTok59dUO-14" style="edgeStyle=orthogonalEdgeStyle;rounded=0;orthogonalLoop=1;jettySize=auto;html=1;exitX=0.5;exitY=0;exitDx=0;exitDy=0;entryX=0;entryY=0.25;entryDx=0;entryDy=0;endArrow=diamond;endFill=1;labelBackgroundColor=none;fillColor=none;fontFamily=Times New Roman;" parent="1" source="4jUgr5Qq2yorTok59dUO-49" target="4jUgr5Qq2yorTok59dUO-48" edge="1">
          <mxGeometry relative="1" as="geometry">
            <mxPoint x="485" y="110" as="sourcePoint" />
            <Array as="points">
              <mxPoint x="504" y="61" />
              <mxPoint x="570" y="61" />
            </Array>
          </mxGeometry>
        </mxCell>
        <mxCell id="4jUgr5Qq2yorTok59dUO-72" value="1..*" style="edgeLabel;html=1;align=center;verticalAlign=middle;resizable=0;points=[];labelBackgroundColor=none;fillColor=none;fontFamily=Times New Roman;" parent="4jUgr5Qq2yorTok59dUO-14" vertex="1" connectable="0">
          <mxGeometry x="-0.4152" y="1" relative="1" as="geometry">
            <mxPoint x="-24" y="3" as="offset" />
          </mxGeometry>
        </mxCell>
        <mxCell id="4jUgr5Qq2yorTok59dUO-56" style="edgeStyle=orthogonalEdgeStyle;rounded=0;orthogonalLoop=1;jettySize=auto;html=1;exitX=0.313;exitY=0.005;exitDx=0;exitDy=0;entryX=0.5;entryY=1;entryDx=0;entryDy=0;endArrow=diamond;endFill=1;labelBackgroundColor=none;fillColor=none;fontFamily=Times New Roman;exitPerimeter=0;" parent="1" source="4jUgr5Qq2yorTok59dUO-59" target="4jUgr5Qq2yorTok59dUO-48" edge="1">
          <mxGeometry relative="1" as="geometry">
            <mxPoint x="649.9999999999999" y="70" as="sourcePoint" />
            <Array as="points" />
          </mxGeometry>
        </mxCell>
        <mxCell id="4jUgr5Qq2yorTok59dUO-73" value="&lt;span style=&quot;color: rgba(0, 0, 0, 0); font-size: 0px;&quot;&gt;%3CmxGraphModel%3E%3Croot%3E%3CmxCell%20id%3D%220%22%2F%3E%3CmxCell%20id%3D%221%22%20parent%3D%220%22%2F%3E%3CmxCell%20id%3D%222%22%20value%3D%221..*%22%20style%3D%22edgeLabel%3Bhtml%3D1%3Balign%3Dcenter%3BverticalAlign%3Dmiddle%3Bresizable%3D0%3Bpoints%3D%5B%5D%3B%22%20vertex%3D%221%22%20connectable%3D%220%22%20parent%3D%221%22%3E%3CmxGeometry%20x%3D%22520.4%22%20y%3D%2239%22%20as%3D%22geometry%22%2F%3E%3C%2FmxCell%3E%3C%2Froot%3E%3C%2FmxGraphModel%30&lt;/span&gt;" style="edgeLabel;html=1;align=center;verticalAlign=middle;resizable=0;points=[];labelBackgroundColor=none;fillColor=none;fontFamily=Times New Roman;" parent="4jUgr5Qq2yorTok59dUO-56" vertex="1" connectable="0">
          <mxGeometry x="-0.3134" y="-2" relative="1" as="geometry">
            <mxPoint as="offset" />
          </mxGeometry>
        </mxCell>
        <mxCell id="4jUgr5Qq2yorTok59dUO-74" value="0..*" style="edgeLabel;html=1;align=center;verticalAlign=middle;resizable=0;points=[];labelBackgroundColor=none;fillColor=none;fontFamily=Times New Roman;" parent="4jUgr5Qq2yorTok59dUO-56" vertex="1" connectable="0">
          <mxGeometry x="-0.2721" relative="1" as="geometry">
            <mxPoint x="-11" y="2" as="offset" />
          </mxGeometry>
        </mxCell>
        <mxCell id="4jUgr5Qq2yorTok59dUO-48" value="&lt;b&gt;Layout&lt;/b&gt;" style="html=1;labelBackgroundColor=none;fillColor=none;fontFamily=Times New Roman;" parent="1" vertex="1">
          <mxGeometry x="570" y="55.5" width="45" height="20" as="geometry" />
        </mxCell>
        <mxCell id="4jUgr5Qq2yorTok59dUO-49" value="Sobject" style="swimlane;fontStyle=1;childLayout=stackLayout;horizontal=1;startSize=26;fillColor=none;horizontalStack=0;resizeParent=1;resizeParentMax=0;resizeLast=0;collapsible=1;marginBottom=0;spacingLeft=0;labelBackgroundColor=none;fontFamily=Times New Roman;" parent="1" vertex="1">
          <mxGeometry x="444" y="70" width="119" height="70" as="geometry" />
        </mxCell>
        <mxCell id="4jUgr5Qq2yorTok59dUO-50" value="id: String&#xa;definition_plan: Plan&#xa;modifiers_plans: Plan []" style="text;strokeColor=none;fillColor=none;align=left;verticalAlign=top;spacingLeft=0;spacingRight=0;overflow=hidden;rotatable=0;points=[[0,0.5],[1,0.5]];portConstraint=eastwest;spacingTop=-6;labelBackgroundColor=none;fontFamily=Times New Roman;" parent="4jUgr5Qq2yorTok59dUO-49" vertex="1">
          <mxGeometry y="26" width="119" height="44" as="geometry" />
        </mxCell>
        <mxCell id="4jUgr5Qq2yorTok59dUO-63" style="edgeStyle=orthogonalEdgeStyle;rounded=0;orthogonalLoop=1;jettySize=auto;html=1;exitX=0.5;exitY=0;exitDx=0;exitDy=0;entryX=0.5;entryY=1;entryDx=0;entryDy=0;entryPerimeter=0;endArrow=diamond;endFill=1;labelBackgroundColor=none;fillColor=none;fontFamily=Times New Roman;" parent="1" source="4jUgr5Qq2yorTok59dUO-57" target="4jUgr5Qq2yorTok59dUO-60" edge="1">
          <mxGeometry relative="1" as="geometry" />
        </mxCell>
        <mxCell id="4jUgr5Qq2yorTok59dUO-221" style="edgeStyle=orthogonalEdgeStyle;rounded=0;orthogonalLoop=1;jettySize=auto;html=1;exitX=1;exitY=0.5;exitDx=0;exitDy=0;entryX=0;entryY=0.5;entryDx=0;entryDy=0;labelBackgroundColor=none;fontSize=14;startArrow=diamond;startFill=1;endArrow=none;endFill=0;fillColor=none;fontFamily=Times New Roman;" parent="1" source="4jUgr5Qq2yorTok59dUO-57" target="4jUgr5Qq2yorTok59dUO-126" edge="1">
          <mxGeometry relative="1" as="geometry">
            <mxPoint x="629" y="186" as="sourcePoint" />
          </mxGeometry>
        </mxCell>
        <mxCell id="4jUgr5Qq2yorTok59dUO-57" value="Port" style="swimlane;fontStyle=1;childLayout=stackLayout;horizontal=1;startSize=26;fillColor=none;horizontalStack=0;resizeParent=1;resizeParentMax=0;resizeLast=0;collapsible=1;marginBottom=0;swimlaneLine=1;labelBackgroundColor=none;fontFamily=Times New Roman;" parent="1" vertex="1">
          <mxGeometry x="546.5" y="168" width="88.5" height="56" as="geometry" />
        </mxCell>
        <mxCell id="4jUgr5Qq2yorTok59dUO-58" value="sobject_id: String&#xa;user: Model" style="text;strokeColor=none;fillColor=none;align=left;verticalAlign=top;spacingLeft=0;spacingRight=0;overflow=hidden;rotatable=0;points=[[0,0.5],[1,0.5]];portConstraint=eastwest;spacingTop=-6;labelBackgroundColor=none;fontFamily=Times New Roman;" parent="4jUgr5Qq2yorTok59dUO-57" vertex="1">
          <mxGeometry y="26" width="88.5" height="30" as="geometry" />
        </mxCell>
        <mxCell id="4jUgr5Qq2yorTok59dUO-59" value="Connection" style="swimlane;fontStyle=1;childLayout=stackLayout;horizontal=1;startSize=26;fillColor=none;horizontalStack=0;resizeParent=1;resizeParentMax=0;resizeLast=0;collapsible=1;marginBottom=0;spacingLeft=0;labelBackgroundColor=none;fontFamily=Times New Roman;" parent="1" vertex="1">
          <mxGeometry x="566.5" y="96" width="83.5" height="56" as="geometry" />
        </mxCell>
        <mxCell id="4jUgr5Qq2yorTok59dUO-60" value="connected: Port&#xa;connecting: Port" style="text;strokeColor=none;fillColor=none;align=left;verticalAlign=top;spacingLeft=0;spacingRight=0;overflow=hidden;rotatable=0;points=[[0,0.5],[1,0.5]];portConstraint=eastwest;spacingTop=-6;labelBackgroundColor=none;fontFamily=Times New Roman;" parent="4jUgr5Qq2yorTok59dUO-59" vertex="1">
          <mxGeometry y="26" width="83.5" height="30" as="geometry" />
        </mxCell>
        <mxCell id="4jUgr5Qq2yorTok59dUO-66" style="edgeStyle=orthogonalEdgeStyle;rounded=0;orthogonalLoop=1;jettySize=auto;html=1;exitX=0.5;exitY=0;exitDx=0;exitDy=0;entryX=0.492;entryY=0.997;entryDx=0;entryDy=0;entryPerimeter=0;endArrow=diamond;endFill=1;labelBackgroundColor=none;fillColor=none;fontFamily=Times New Roman;" parent="1" source="4jUgr5Qq2yorTok59dUO-64" target="4jUgr5Qq2yorTok59dUO-50" edge="1">
          <mxGeometry relative="1" as="geometry" />
        </mxCell>
        <mxCell id="4jUgr5Qq2yorTok59dUO-64" value="Plan" style="swimlane;fontStyle=1;childLayout=stackLayout;horizontal=1;startSize=26;fillColor=none;horizontalStack=0;resizeParent=1;resizeParentMax=0;resizeLast=0;collapsible=1;marginBottom=0;labelBackgroundColor=none;fontFamily=Times New Roman;" parent="1" vertex="1">
          <mxGeometry x="453.5" y="153" width="85.12" height="42" as="geometry" />
        </mxCell>
        <mxCell id="4jUgr5Qq2yorTok59dUO-65" value="script_uri: String&#xa;" style="text;strokeColor=none;fillColor=none;align=left;verticalAlign=top;spacingLeft=0;spacingRight=0;overflow=hidden;rotatable=0;points=[[0,0.5],[1,0.5]];portConstraint=eastwest;spacingTop=-7;labelBackgroundColor=none;fontFamily=Times New Roman;" parent="4jUgr5Qq2yorTok59dUO-64" vertex="1">
          <mxGeometry y="26" width="85.12" height="16" as="geometry" />
        </mxCell>
        <mxCell id="4jUgr5Qq2yorTok59dUO-77" style="edgeStyle=orthogonalEdgeStyle;rounded=0;orthogonalLoop=1;jettySize=auto;html=1;exitX=0.5;exitY=0;exitDx=0;exitDy=0;entryX=0.5;entryY=1;entryDx=0;entryDy=0;endArrow=diamond;endFill=1;labelBackgroundColor=none;fillColor=none;fontFamily=Times New Roman;" parent="1" source="4jUgr5Qq2yorTok59dUO-67" target="4jUgr5Qq2yorTok59dUO-64" edge="1">
          <mxGeometry relative="1" as="geometry">
            <mxPoint x="517.2500000000001" y="210.27999999999997" as="sourcePoint" />
            <mxPoint x="516.6102400000001" y="176.00000000000023" as="targetPoint" />
            <Array as="points">
              <mxPoint x="496" y="199" />
            </Array>
          </mxGeometry>
        </mxCell>
        <mxCell id="4jUgr5Qq2yorTok59dUO-78" value="0..*" style="edgeLabel;html=1;align=center;verticalAlign=middle;resizable=0;points=[];labelBackgroundColor=none;fillColor=none;fontFamily=Times New Roman;" parent="4jUgr5Qq2yorTok59dUO-77" vertex="1" connectable="0">
          <mxGeometry x="-0.2069" y="-1" relative="1" as="geometry">
            <mxPoint x="10" y="-3" as="offset" />
          </mxGeometry>
        </mxCell>
        <mxCell id="4jUgr5Qq2yorTok59dUO-95" style="edgeStyle=orthogonalEdgeStyle;rounded=0;orthogonalLoop=1;jettySize=auto;html=1;endArrow=diamond;endFill=1;labelBackgroundColor=none;fillColor=none;fontFamily=Times New Roman;" parent="1" edge="1">
          <mxGeometry relative="1" as="geometry">
            <mxPoint x="496" y="210" as="sourcePoint" />
            <mxPoint x="546" y="210" as="targetPoint" />
            <Array as="points">
              <mxPoint x="496" y="210" />
              <mxPoint x="546" y="210" />
            </Array>
          </mxGeometry>
        </mxCell>
        <mxCell id="8q9m0iv9esHsS-CNKXh9-14" style="edgeStyle=orthogonalEdgeStyle;rounded=0;orthogonalLoop=1;jettySize=auto;html=1;exitX=0.998;exitY=0.379;exitDx=0;exitDy=0;fontFamily=Times New Roman;startArrow=diamond;startFill=1;endArrow=none;endFill=0;entryX=0.5;entryY=0;entryDx=0;entryDy=0;exitPerimeter=0;" parent="1" source="4jUgr5Qq2yorTok59dUO-67" target="8q9m0iv9esHsS-CNKXh9-8" edge="1">
          <mxGeometry relative="1" as="geometry">
            <mxPoint x="561" y="249.33333333333326" as="targetPoint" />
            <Array as="points">
              <mxPoint x="577" y="237" />
            </Array>
          </mxGeometry>
        </mxCell>
        <mxCell id="8q9m0iv9esHsS-CNKXh9-16" value="&lt;span style=&quot;&quot;&gt;0..*&lt;/span&gt;" style="edgeLabel;html=1;align=center;verticalAlign=middle;resizable=0;points=[];fontFamily=Times New Roman;labelBackgroundColor=none;" parent="8q9m0iv9esHsS-CNKXh9-14" vertex="1" connectable="0">
          <mxGeometry x="0.3587" relative="1" as="geometry">
            <mxPoint x="-8" y="7" as="offset" />
          </mxGeometry>
        </mxCell>
        <mxCell id="8q9m0iv9esHsS-CNKXh9-17" style="edgeStyle=orthogonalEdgeStyle;rounded=0;orthogonalLoop=1;jettySize=auto;html=1;exitX=0.51;exitY=1.002;exitDx=0;exitDy=0;fontFamily=Times New Roman;startArrow=diamond;startFill=1;endArrow=none;endFill=0;entryX=0.5;entryY=0;entryDx=0;entryDy=0;exitPerimeter=0;" parent="1" source="4jUgr5Qq2yorTok59dUO-68" target="4jUgr5Qq2yorTok59dUO-71" edge="1">
          <mxGeometry relative="1" as="geometry">
            <mxPoint x="530" y="283" as="targetPoint" />
            <Array as="points">
              <mxPoint x="497" y="280" />
              <mxPoint x="497" y="280" />
              <mxPoint x="497" y="288" />
            </Array>
          </mxGeometry>
        </mxCell>
        <mxCell id="4jUgr5Qq2yorTok59dUO-67" value="Parameter" style="swimlane;fontStyle=1;childLayout=stackLayout;horizontal=1;startSize=26;fillColor=none;horizontalStack=0;resizeParent=1;resizeParentMax=0;resizeLast=0;collapsible=1;marginBottom=0;labelBackgroundColor=none;fontFamily=Times New Roman;" parent="1" vertex="1">
          <mxGeometry x="453.5" y="214.28" width="85.5" height="60" as="geometry" />
        </mxCell>
        <mxCell id="4jUgr5Qq2yorTok59dUO-68" value="name: String&#xa;context: Scope[]" style="text;strokeColor=none;fillColor=none;align=left;verticalAlign=top;spacingLeft=1;spacingRight=2;overflow=hidden;rotatable=0;points=[[0,0.5],[1,0.5]];portConstraint=eastwest;spacingTop=-2;labelBackgroundColor=none;fontFamily=Times New Roman;" parent="4jUgr5Qq2yorTok59dUO-67" vertex="1">
          <mxGeometry y="26" width="85.5" height="34" as="geometry" />
        </mxCell>
        <mxCell id="4jUgr5Qq2yorTok59dUO-71" value="&lt;b&gt;&lt;i&gt;Value&lt;/i&gt;&lt;/b&gt;" style="html=1;spacingLeft=-1;labelBackgroundColor=none;fillColor=none;fontFamily=Times New Roman;" parent="1" vertex="1">
          <mxGeometry x="474" y="287.71999999999997" width="45" height="20" as="geometry" />
        </mxCell>
        <mxCell id="8q9m0iv9esHsS-CNKXh9-19" style="edgeStyle=orthogonalEdgeStyle;rounded=0;orthogonalLoop=1;jettySize=auto;html=1;exitX=0.5;exitY=0;exitDx=0;exitDy=0;entryX=0.5;entryY=1;entryDx=0;entryDy=0;fontFamily=Times New Roman;startArrow=none;startFill=0;endArrow=block;endFill=0;" parent="1" source="4jUgr5Qq2yorTok59dUO-80" target="4jUgr5Qq2yorTok59dUO-71" edge="1">
          <mxGeometry relative="1" as="geometry">
            <Array as="points">
              <mxPoint x="471" y="320" />
              <mxPoint x="497" y="320" />
            </Array>
          </mxGeometry>
        </mxCell>
        <mxCell id="4jUgr5Qq2yorTok59dUO-80" value="&lt;b&gt;Text&lt;/b&gt;" style="html=1;labelBackgroundColor=none;fillColor=none;fontFamily=Times New Roman;" parent="1" vertex="1">
          <mxGeometry x="456" y="326.71999999999997" width="30" height="20" as="geometry" />
        </mxCell>
        <mxCell id="8q9m0iv9esHsS-CNKXh9-18" style="edgeStyle=orthogonalEdgeStyle;rounded=0;orthogonalLoop=1;jettySize=auto;html=1;exitX=0.5;exitY=0;exitDx=0;exitDy=0;entryX=0.5;entryY=1;entryDx=0;entryDy=0;fontFamily=Times New Roman;startArrow=none;startFill=0;endArrow=block;endFill=0;" parent="1" source="4jUgr5Qq2yorTok59dUO-83" target="4jUgr5Qq2yorTok59dUO-71" edge="1">
          <mxGeometry relative="1" as="geometry">
            <Array as="points">
              <mxPoint x="416" y="320" />
              <mxPoint x="497" y="320" />
            </Array>
          </mxGeometry>
        </mxCell>
        <mxCell id="4jUgr5Qq2yorTok59dUO-83" value="&lt;b&gt;Number&lt;/b&gt;" style="html=1;labelBackgroundColor=none;fillColor=none;fontFamily=Times New Roman;" parent="1" vertex="1">
          <mxGeometry x="390" y="326.71999999999997" width="52.5" height="20" as="geometry" />
        </mxCell>
        <mxCell id="8q9m0iv9esHsS-CNKXh9-20" style="edgeStyle=orthogonalEdgeStyle;rounded=0;orthogonalLoop=1;jettySize=auto;html=1;exitX=0.5;exitY=0;exitDx=0;exitDy=0;entryX=0.5;entryY=1;entryDx=0;entryDy=0;fontFamily=Times New Roman;startArrow=none;startFill=0;endArrow=block;endFill=0;" parent="1" source="4jUgr5Qq2yorTok59dUO-84" target="4jUgr5Qq2yorTok59dUO-71" edge="1">
          <mxGeometry relative="1" as="geometry">
            <Array as="points">
              <mxPoint x="509" y="320" />
              <mxPoint x="497" y="320" />
            </Array>
          </mxGeometry>
        </mxCell>
        <mxCell id="4jUgr5Qq2yorTok59dUO-84" value="&lt;b&gt;Curve&lt;/b&gt;" style="html=1;labelBackgroundColor=none;fillColor=none;fontFamily=Times New Roman;" parent="1" vertex="1">
          <mxGeometry x="489.5" y="326.71999999999997" width="40" height="20" as="geometry" />
        </mxCell>
        <mxCell id="8q9m0iv9esHsS-CNKXh9-21" style="edgeStyle=orthogonalEdgeStyle;rounded=0;orthogonalLoop=1;jettySize=auto;html=1;exitX=0.5;exitY=0;exitDx=0;exitDy=0;entryX=0.5;entryY=1;entryDx=0;entryDy=0;fontFamily=Times New Roman;startArrow=none;startFill=0;endArrow=block;endFill=0;" parent="1" source="4jUgr5Qq2yorTok59dUO-90" target="4jUgr5Qq2yorTok59dUO-71" edge="1">
          <mxGeometry relative="1" as="geometry">
            <Array as="points">
              <mxPoint x="547" y="320" />
              <mxPoint x="497" y="320" />
            </Array>
          </mxGeometry>
        </mxCell>
        <mxCell id="4jUgr5Qq2yorTok59dUO-90" value="&lt;b&gt;Brep&lt;/b&gt;" style="html=1;labelBackgroundColor=none;fillColor=none;fontFamily=Times New Roman;" parent="1" vertex="1">
          <mxGeometry x="532.5" y="326.71999999999997" width="30" height="20" as="geometry" />
        </mxCell>
        <mxCell id="8q9m0iv9esHsS-CNKXh9-22" style="edgeStyle=orthogonalEdgeStyle;rounded=0;orthogonalLoop=1;jettySize=auto;html=1;exitX=0.5;exitY=0;exitDx=0;exitDy=0;entryX=0.5;entryY=1;entryDx=0;entryDy=0;fontFamily=Times New Roman;startArrow=none;startFill=0;endArrow=block;endFill=0;" parent="1" source="4jUgr5Qq2yorTok59dUO-92" target="4jUgr5Qq2yorTok59dUO-71" edge="1">
          <mxGeometry relative="1" as="geometry">
            <Array as="points">
              <mxPoint x="580" y="320" />
              <mxPoint x="497" y="320" />
              <mxPoint x="497" y="308" />
            </Array>
          </mxGeometry>
        </mxCell>
        <mxCell id="4jUgr5Qq2yorTok59dUO-92" value="&lt;b&gt;...&lt;/b&gt;" style="html=1;labelBackgroundColor=none;fillColor=none;fontFamily=Times New Roman;" parent="1" vertex="1">
          <mxGeometry x="565" y="326.71999999999997" width="30" height="20" as="geometry" />
        </mxCell>
        <mxCell id="4jUgr5Qq2yorTok59dUO-141" style="edgeStyle=orthogonalEdgeStyle;rounded=0;orthogonalLoop=1;jettySize=auto;html=1;exitX=0.5;exitY=1;exitDx=0;exitDy=0;entryX=0.5;entryY=0;entryDx=0;entryDy=0;startArrow=diamond;startFill=1;endArrow=none;endFill=0;labelBackgroundColor=none;fillColor=none;fontFamily=Times New Roman;" parent="1" source="4jUgr5Qq2yorTok59dUO-93" target="4jUgr5Qq2yorTok59dUO-136" edge="1">
          <mxGeometry relative="1" as="geometry">
            <Array as="points">
              <mxPoint x="766" y="90" />
              <mxPoint x="707" y="90" />
            </Array>
          </mxGeometry>
        </mxCell>
        <mxCell id="4jUgr5Qq2yorTok59dUO-142" style="edgeStyle=orthogonalEdgeStyle;rounded=0;orthogonalLoop=1;jettySize=auto;html=1;exitX=0.5;exitY=1;exitDx=0;exitDy=0;startArrow=diamond;startFill=1;endArrow=none;endFill=0;labelBackgroundColor=none;fillColor=none;fontFamily=Times New Roman;entryX=0.175;entryY=0.014;entryDx=0;entryDy=0;entryPerimeter=0;" parent="1" source="4jUgr5Qq2yorTok59dUO-93" target="4jUgr5Qq2yorTok59dUO-139" edge="1">
          <mxGeometry relative="1" as="geometry">
            <Array as="points">
              <mxPoint x="766" y="90" />
              <mxPoint x="790" y="90" />
              <mxPoint x="790" y="96" />
              <mxPoint x="790" y="96" />
            </Array>
            <mxPoint x="768.5" y="64" as="sourcePoint" />
            <mxPoint x="780" y="80" as="targetPoint" />
          </mxGeometry>
        </mxCell>
        <mxCell id="8q9m0iv9esHsS-CNKXh9-50" style="edgeStyle=orthogonalEdgeStyle;rounded=0;orthogonalLoop=1;jettySize=auto;html=1;exitX=0.5;exitY=0;exitDx=0;exitDy=0;entryX=0.947;entryY=0.997;entryDx=0;entryDy=0;entryPerimeter=0;fontFamily=Times New Roman;startArrow=classic;startFill=1;endArrow=none;endFill=0;" parent="1" source="4jUgr5Qq2yorTok59dUO-93" edge="1">
          <mxGeometry relative="1" as="geometry">
            <mxPoint x="765.5" y="49" as="sourcePoint" />
            <mxPoint x="796.1099999999999" y="-69.11999999999989" as="targetPoint" />
            <Array as="points">
              <mxPoint x="766" y="20" />
              <mxPoint x="796" y="20" />
            </Array>
          </mxGeometry>
        </mxCell>
        <mxCell id="4jUgr5Qq2yorTok59dUO-93" value="&lt;b&gt;Design&lt;/b&gt;" style="html=1;labelBackgroundColor=none;fillColor=none;fontFamily=Times New Roman;" parent="1" vertex="1">
          <mxGeometry x="743" y="55.5" width="45" height="20" as="geometry" />
        </mxCell>
        <mxCell id="4jUgr5Qq2yorTok59dUO-114" value="&lt;p style=&quot;margin: 0px ; margin-top: 4px ; text-align: center&quot;&gt;&lt;i&gt;&amp;lt;&amp;lt;enum&amp;gt;&amp;gt;&lt;/i&gt;&lt;br&gt;&lt;b&gt;Serialization&lt;/b&gt;&lt;/p&gt;&lt;hr size=&quot;1&quot;&gt;&lt;p style=&quot;margin: 0px ; margin-left: 4px&quot;&gt;NONE&lt;/p&gt;&lt;p style=&quot;margin: 0px ; margin-left: 4px&quot;&gt;JSON&lt;/p&gt;&lt;p style=&quot;margin: 0px ; margin-left: 4px&quot;&gt;XML&lt;/p&gt;&lt;p style=&quot;margin: 0px ; margin-left: 4px&quot;&gt;YAML&lt;/p&gt;&lt;p style=&quot;margin: 0px ; margin-left: 4px&quot;&gt;...&lt;/p&gt;" style="verticalAlign=top;align=left;overflow=fill;fontSize=12;fontFamily=Times New Roman;html=1;labelBackgroundColor=none;fillColor=none;" parent="1" vertex="1">
          <mxGeometry x="676" y="227" width="67" height="120" as="geometry" />
        </mxCell>
        <mxCell id="4jUgr5Qq2yorTok59dUO-120" value="&lt;p style=&quot;margin: 0px ; margin-top: 4px ; text-align: center&quot;&gt;&lt;i&gt;&amp;lt;&amp;lt;enum&amp;gt;&amp;gt;&lt;/i&gt;&lt;br&gt;&lt;b&gt;Encoding&lt;/b&gt;&lt;/p&gt;&lt;hr size=&quot;1&quot;&gt;&lt;p style=&quot;margin: 0px ; margin-left: 4px&quot;&gt;&lt;span style=&quot;background-color: initial;&quot;&gt;UTF8&lt;/span&gt;&lt;br&gt;&lt;/p&gt;&lt;p style=&quot;margin: 0px ; margin-left: 4px&quot;&gt;ASCII&lt;/p&gt;&lt;p style=&quot;margin: 0px ; margin-left: 4px&quot;&gt;BASE64&lt;/p&gt;&lt;p style=&quot;margin: 0px ; margin-left: 4px&quot;&gt;...&lt;/p&gt;" style="verticalAlign=top;align=left;overflow=fill;fontSize=12;fontFamily=Times New Roman;html=1;labelBackgroundColor=none;fillColor=none;" parent="1" vertex="1">
          <mxGeometry x="614" y="227" width="59" height="120.28" as="geometry" />
        </mxCell>
        <mxCell id="4jUgr5Qq2yorTok59dUO-121" value="&lt;p style=&quot;margin: 0px ; margin-top: 4px ; text-align: center&quot;&gt;&lt;i&gt;&amp;lt;&amp;lt;enum&amp;gt;&amp;gt;&lt;/i&gt;&lt;br&gt;&lt;b&gt;Language&lt;/b&gt;&lt;/p&gt;&lt;hr size=&quot;1&quot;&gt;&lt;p style=&quot;margin: 0px ; margin-left: 4px&quot;&gt;&lt;span&gt;NONE&lt;/span&gt;&lt;/p&gt;&lt;p style=&quot;margin: 0px ; margin-left: 4px&quot;&gt;&lt;span&gt;IFC&lt;/span&gt;&lt;/p&gt;&lt;p style=&quot;margin: 0px ; margin-left: 4px&quot;&gt;SPECKLE&lt;/p&gt;&lt;p style=&quot;margin: 0px ; margin-left: 4px&quot;&gt;BHOM&lt;/p&gt;&lt;p style=&quot;margin: 0px ; margin-left: 4px&quot;&gt;...&lt;/p&gt;" style="verticalAlign=top;align=left;overflow=fill;fontSize=12;fontFamily=Times New Roman;html=1;labelBackgroundColor=none;fillColor=none;" parent="1" vertex="1">
          <mxGeometry x="746" y="227.28" width="60" height="120" as="geometry" />
        </mxCell>
        <mxCell id="4jUgr5Qq2yorTok59dUO-130" style="edgeStyle=orthogonalEdgeStyle;rounded=0;orthogonalLoop=1;jettySize=auto;html=1;entryX=0.5;entryY=0;entryDx=0;entryDy=0;endArrow=none;endFill=0;startArrow=diamond;startFill=1;labelBackgroundColor=none;fillColor=none;fontFamily=Times New Roman;" parent="1" source="4jUgr5Qq2yorTok59dUO-126" target="4jUgr5Qq2yorTok59dUO-114" edge="1">
          <mxGeometry relative="1" as="geometry">
            <Array as="points">
              <mxPoint x="682" y="220" />
              <mxPoint x="715" y="220" />
            </Array>
          </mxGeometry>
        </mxCell>
        <mxCell id="4jUgr5Qq2yorTok59dUO-134" style="edgeStyle=orthogonalEdgeStyle;rounded=0;orthogonalLoop=1;jettySize=auto;html=1;exitX=0.5;exitY=1;exitDx=0;exitDy=0;entryX=0.5;entryY=0;entryDx=0;entryDy=0;startArrow=diamond;startFill=1;endArrow=none;endFill=0;labelBackgroundColor=none;fillColor=none;fontFamily=Times New Roman;" parent="1" edge="1">
          <mxGeometry relative="1" as="geometry">
            <Array as="points">
              <mxPoint x="682" y="220" />
              <mxPoint x="784" y="220" />
            </Array>
            <mxPoint x="681.5" y="208" as="sourcePoint" />
            <mxPoint x="784" y="227.27999999999997" as="targetPoint" />
          </mxGeometry>
        </mxCell>
        <mxCell id="4jUgr5Qq2yorTok59dUO-135" style="edgeStyle=orthogonalEdgeStyle;rounded=0;orthogonalLoop=1;jettySize=auto;html=1;exitX=0.538;exitY=1.061;exitDx=0;exitDy=0;entryX=0.5;entryY=0;entryDx=0;entryDy=0;startArrow=diamond;startFill=1;endArrow=none;endFill=0;labelBackgroundColor=none;fillColor=none;fontFamily=Times New Roman;exitPerimeter=0;" parent="1" source="4jUgr5Qq2yorTok59dUO-127" target="4jUgr5Qq2yorTok59dUO-120" edge="1">
          <mxGeometry relative="1" as="geometry">
            <Array as="points">
              <mxPoint x="682" y="220" />
              <mxPoint x="645" y="220" />
            </Array>
          </mxGeometry>
        </mxCell>
        <mxCell id="4jUgr5Qq2yorTok59dUO-126" value="Model" style="swimlane;fontStyle=1;childLayout=stackLayout;horizontal=1;startSize=26;fillColor=none;horizontalStack=0;resizeParent=1;resizeParentMax=0;resizeLast=0;collapsible=1;marginBottom=0;swimlaneLine=1;labelBackgroundColor=none;fontFamily=Times New Roman;" parent="1" vertex="1">
          <mxGeometry x="647" y="168" width="65" height="40" as="geometry" />
        </mxCell>
        <mxCell id="4jUgr5Qq2yorTok59dUO-127" value="body: Byte[]" style="text;strokeColor=none;fillColor=none;align=left;verticalAlign=top;spacingLeft=1;spacingRight=1;overflow=hidden;rotatable=0;points=[[0,0.5],[1,0.5]];portConstraint=eastwest;spacingTop=-8;labelBackgroundColor=none;fontFamily=Times New Roman;" parent="4jUgr5Qq2yorTok59dUO-126" vertex="1">
          <mxGeometry y="26" width="65" height="14" as="geometry" />
        </mxCell>
        <mxCell id="4jUgr5Qq2yorTok59dUO-143" style="edgeStyle=orthogonalEdgeStyle;rounded=0;orthogonalLoop=1;jettySize=auto;html=1;entryX=0.5;entryY=0;entryDx=0;entryDy=0;startArrow=diamond;startFill=1;endArrow=none;endFill=0;labelBackgroundColor=none;fillColor=none;fontFamily=Times New Roman;exitX=0.25;exitY=1.009;exitDx=0;exitDy=0;exitPerimeter=0;" parent="1" source="4jUgr5Qq2yorTok59dUO-137" target="4jUgr5Qq2yorTok59dUO-126" edge="1">
          <mxGeometry relative="1" as="geometry">
            <Array as="points" />
            <mxPoint x="680" y="158" as="sourcePoint" />
          </mxGeometry>
        </mxCell>
        <mxCell id="4jUgr5Qq2yorTok59dUO-144" value="0..*" style="edgeLabel;html=1;align=center;verticalAlign=middle;resizable=0;points=[];labelBackgroundColor=none;fillColor=none;fontFamily=Times New Roman;" parent="4jUgr5Qq2yorTok59dUO-143" vertex="1" connectable="0">
          <mxGeometry x="0.322" relative="1" as="geometry">
            <mxPoint x="45" y="3" as="offset" />
          </mxGeometry>
        </mxCell>
        <mxCell id="8q9m0iv9esHsS-CNKXh9-4" style="edgeStyle=orthogonalEdgeStyle;rounded=0;orthogonalLoop=1;jettySize=auto;html=1;exitX=0.77;exitY=1.003;exitDx=0;exitDy=0;entryX=0.097;entryY=-0.008;entryDx=0;entryDy=0;startArrow=diamond;startFill=1;endArrow=none;endFill=0;fontFamily=Times New Roman;exitPerimeter=0;entryPerimeter=0;" parent="1" source="4jUgr5Qq2yorTok59dUO-137" target="8q9m0iv9esHsS-CNKXh9-1" edge="1">
          <mxGeometry relative="1" as="geometry">
            <mxPoint x="719.1999999999999" y="147.79199999999992" as="sourcePoint" />
            <mxPoint x="769.75" y="174" as="targetPoint" />
            <Array as="points" />
          </mxGeometry>
        </mxCell>
        <mxCell id="4jUgr5Qq2yorTok59dUO-136" value="Prototype" style="swimlane;fontStyle=1;childLayout=stackLayout;horizontal=1;startSize=26;fillColor=none;horizontalStack=0;resizeParent=1;resizeParentMax=0;resizeLast=0;collapsible=1;marginBottom=0;spacingLeft=0;labelBackgroundColor=none;fontFamily=Times New Roman;" parent="1" vertex="1">
          <mxGeometry x="653" y="96" width="107" height="60" as="geometry" />
        </mxCell>
        <mxCell id="4jUgr5Qq2yorTok59dUO-137" value="definition_plan_hash&#xa;    : String" style="text;strokeColor=none;fillColor=none;align=left;verticalAlign=top;spacingLeft=0;spacingRight=1;overflow=hidden;rotatable=0;points=[[0,0.5],[1,0.5]];portConstraint=eastwest;spacingTop=-4;labelBackgroundColor=none;fontFamily=Times New Roman;" parent="4jUgr5Qq2yorTok59dUO-136" vertex="1">
          <mxGeometry y="26" width="107" height="34" as="geometry" />
        </mxCell>
        <mxCell id="4jUgr5Qq2yorTok59dUO-160" style="edgeStyle=orthogonalEdgeStyle;rounded=0;orthogonalLoop=1;jettySize=auto;html=1;exitX=0.708;exitY=1.006;exitDx=0;exitDy=0;entryX=0.5;entryY=0;entryDx=0;entryDy=0;startArrow=diamond;startFill=1;endArrow=none;endFill=0;labelBackgroundColor=none;fillColor=none;fontFamily=Times New Roman;exitPerimeter=0;" parent="1" source="4jUgr5Qq2yorTok59dUO-140" target="4jUgr5Qq2yorTok59dUO-158" edge="1">
          <mxGeometry relative="1" as="geometry">
            <mxPoint x="842" y="154" as="sourcePoint" />
            <Array as="points" />
          </mxGeometry>
        </mxCell>
        <mxCell id="4jUgr5Qq2yorTok59dUO-139" value="Object" style="swimlane;fontStyle=1;childLayout=stackLayout;horizontal=1;startSize=26;fillColor=none;horizontalStack=0;resizeParent=1;resizeParentMax=0;resizeLast=0;collapsible=1;marginBottom=0;spacingLeft=0;labelBackgroundColor=none;fontFamily=Times New Roman;" parent="1" vertex="1">
          <mxGeometry x="763" y="96" width="156" height="68" as="geometry" />
        </mxCell>
        <mxCell id="4jUgr5Qq2yorTok59dUO-140" value="definition_plan_hash: String&#xa;modification_plan_hash: String&#xa;sobject_id: String&#xa;" style="text;strokeColor=none;fillColor=none;align=left;verticalAlign=top;spacingLeft=0;spacingRight=0;overflow=hidden;rotatable=0;points=[[0,0.5],[1,0.5]];portConstraint=eastwest;spacingTop=-8;labelBackgroundColor=none;fontFamily=Times New Roman;" parent="4jUgr5Qq2yorTok59dUO-139" vertex="1">
          <mxGeometry y="26" width="156" height="42" as="geometry" />
        </mxCell>
        <mxCell id="4jUgr5Qq2yorTok59dUO-152" value="Point" style="swimlane;fontStyle=1;childLayout=stackLayout;horizontal=1;startSize=26;fillColor=none;horizontalStack=0;resizeParent=1;resizeParentMax=0;resizeLast=0;collapsible=1;marginBottom=0;spacingLeft=0;labelBackgroundColor=none;fontFamily=Times New Roman;spacing=0;" parent="1" vertex="1">
          <mxGeometry x="809" y="265.28" width="53" height="70" as="geometry" />
        </mxCell>
        <mxCell id="4jUgr5Qq2yorTok59dUO-153" value="x: Double&#xa;y: Double&#xa;z: Double" style="text;strokeColor=none;fillColor=none;align=left;verticalAlign=top;spacingLeft=0;spacingRight=0;overflow=hidden;rotatable=0;points=[[0,0.5],[1,0.5]];portConstraint=eastwest;spacingTop=-6;labelBackgroundColor=none;fontFamily=Times New Roman;spacing=2;" parent="4jUgr5Qq2yorTok59dUO-152" vertex="1">
          <mxGeometry y="26" width="53" height="44" as="geometry" />
        </mxCell>
        <mxCell id="4jUgr5Qq2yorTok59dUO-154" value="Quaternion" style="swimlane;fontStyle=1;childLayout=stackLayout;horizontal=1;startSize=26;fillColor=none;horizontalStack=0;resizeParent=1;resizeParentMax=0;resizeLast=0;collapsible=1;marginBottom=0;spacingLeft=0;labelBackgroundColor=none;fontFamily=Times New Roman;spacing=0;spacingTop=0;" parent="1" vertex="1">
          <mxGeometry x="865" y="265.28" width="64" height="82" as="geometry" />
        </mxCell>
        <mxCell id="4jUgr5Qq2yorTok59dUO-155" value="w: Double&#xa;x: Double&#xa;y: Double&#xa;z: Double" style="text;strokeColor=none;fillColor=none;align=left;verticalAlign=top;spacingLeft=1;spacingRight=1;overflow=hidden;rotatable=0;points=[[0,0.5],[1,0.5]];portConstraint=eastwest;spacingTop=-7;labelBackgroundColor=none;fontFamily=Times New Roman;" parent="4jUgr5Qq2yorTok59dUO-154" vertex="1">
          <mxGeometry y="26" width="64" height="56" as="geometry" />
        </mxCell>
        <mxCell id="4jUgr5Qq2yorTok59dUO-161" style="edgeStyle=orthogonalEdgeStyle;rounded=0;orthogonalLoop=1;jettySize=auto;html=1;exitX=0.5;exitY=1.022;exitDx=0;exitDy=0;entryX=0.5;entryY=0;entryDx=0;entryDy=0;startArrow=diamond;startFill=1;endArrow=none;endFill=0;labelBackgroundColor=none;fillColor=none;fontFamily=Times New Roman;exitPerimeter=0;" parent="1" source="4jUgr5Qq2yorTok59dUO-159" target="4jUgr5Qq2yorTok59dUO-152" edge="1">
          <mxGeometry relative="1" as="geometry">
            <Array as="points">
              <mxPoint x="873" y="258" />
              <mxPoint x="844" y="258" />
            </Array>
            <mxPoint x="911.875" y="230.99999999999977" as="sourcePoint" />
          </mxGeometry>
        </mxCell>
        <mxCell id="4jUgr5Qq2yorTok59dUO-162" style="edgeStyle=orthogonalEdgeStyle;rounded=0;orthogonalLoop=1;jettySize=auto;html=1;exitX=0.503;exitY=1.033;exitDx=0;exitDy=0;entryX=0.5;entryY=0;entryDx=0;entryDy=0;startArrow=diamond;startFill=1;endArrow=none;endFill=0;labelBackgroundColor=none;fillColor=none;fontFamily=Times New Roman;exitPerimeter=0;" parent="1" source="4jUgr5Qq2yorTok59dUO-159" target="4jUgr5Qq2yorTok59dUO-154" edge="1">
          <mxGeometry relative="1" as="geometry">
            <Array as="points">
              <mxPoint x="874" y="258" />
              <mxPoint x="905" y="258" />
              <mxPoint x="905" y="265" />
            </Array>
            <mxPoint x="911.875" y="230.99999999999977" as="sourcePoint" />
          </mxGeometry>
        </mxCell>
        <mxCell id="4jUgr5Qq2yorTok59dUO-158" value="Pose" style="swimlane;fontStyle=1;childLayout=stackLayout;horizontal=1;startSize=26;fillColor=none;horizontalStack=0;resizeParent=1;resizeParentMax=0;resizeLast=0;collapsible=1;marginBottom=0;spacingLeft=0;labelBackgroundColor=none;fontFamily=Times New Roman;" parent="1" vertex="1">
          <mxGeometry x="869" y="178" width="105.25" height="56" as="geometry" />
        </mxCell>
        <mxCell id="4jUgr5Qq2yorTok59dUO-159" value="point_of_view: Point&#xa;view: Quaternion" style="text;strokeColor=none;fillColor=none;align=left;verticalAlign=top;spacingLeft=0;spacingRight=0;overflow=hidden;rotatable=0;points=[[0,0.5],[1,0.5]];portConstraint=eastwest;spacingTop=-7;labelBackgroundColor=none;fontFamily=Times New Roman;" parent="4jUgr5Qq2yorTok59dUO-158" vertex="1">
          <mxGeometry y="26" width="105.25" height="30" as="geometry" />
        </mxCell>
        <mxCell id="4jUgr5Qq2yorTok59dUO-209" style="edgeStyle=orthogonalEdgeStyle;rounded=0;orthogonalLoop=1;jettySize=auto;html=1;exitX=0.995;exitY=0.82;exitDx=0;exitDy=0;fontSize=14;startArrow=diamond;startFill=1;endArrow=none;endFill=0;labelBackgroundColor=none;fillColor=none;fontFamily=Times New Roman;exitPerimeter=0;entryX=0.002;entryY=0.051;entryDx=0;entryDy=0;entryPerimeter=0;" parent="1" edge="1">
          <mxGeometry relative="1" as="geometry">
            <mxPoint x="806.1979999999999" y="0.5899999999999181" as="targetPoint" />
            <Array as="points">
              <mxPoint x="807" y="1" />
              <mxPoint x="807" y="1" />
            </Array>
            <mxPoint x="787.4049999999997" y="0.599999999999909" as="sourcePoint" />
          </mxGeometry>
        </mxCell>
        <mxCell id="4jUgr5Qq2yorTok59dUO-210" style="edgeStyle=orthogonalEdgeStyle;rounded=0;orthogonalLoop=1;jettySize=auto;html=1;exitX=0.183;exitY=1.025;exitDx=0;exitDy=0;fontSize=14;startArrow=none;startFill=0;endArrow=classic;endFill=1;exitPerimeter=0;labelBackgroundColor=none;fillColor=none;fontFamily=Times New Roman;entryX=0.5;entryY=0;entryDx=0;entryDy=0;" parent="1" target="4jUgr5Qq2yorTok59dUO-48" edge="1">
          <mxGeometry relative="1" as="geometry">
            <Array as="points">
              <mxPoint x="551" y="-64" />
              <mxPoint x="520" y="-64" />
              <mxPoint x="520" y="10" />
              <mxPoint x="593" y="10" />
            </Array>
            <mxPoint x="549.7180000000001" y="-68.00000000000023" as="sourcePoint" />
            <mxPoint x="593" y="26" as="targetPoint" />
          </mxGeometry>
        </mxCell>
        <mxCell id="4jUgr5Qq2yorTok59dUO-179" value="" style="endArrow=none;dashed=1;html=1;rounded=0;labelBackgroundColor=none;fillColor=none;fontFamily=Times New Roman;exitX=-0.013;exitY=0.062;exitDx=0;exitDy=0;exitPerimeter=0;" parent="1" edge="1">
          <mxGeometry width="50" height="50" relative="1" as="geometry">
            <mxPoint x="318.6099999999999" y="14.319999999999936" as="sourcePoint" />
            <mxPoint x="930" y="15" as="targetPoint" />
            <Array as="points">
              <mxPoint x="620" y="15" />
              <mxPoint x="620" y="80" />
              <mxPoint x="680" y="80" />
              <mxPoint x="740" y="80" />
              <mxPoint x="740" y="15" />
              <mxPoint x="800" y="15" />
              <mxPoint x="800" y="90" />
              <mxPoint x="910" y="90" />
              <mxPoint x="910" y="15" />
            </Array>
          </mxGeometry>
        </mxCell>
        <mxCell id="4jUgr5Qq2yorTok59dUO-180" value="" style="endArrow=none;dashed=1;html=1;rounded=0;labelBackgroundColor=none;fillColor=none;fontFamily=Times New Roman;exitX=0.047;exitY=1.055;exitDx=0;exitDy=0;exitPerimeter=0;" parent="1" source="4jUgr5Qq2yorTok59dUO-191" edge="1">
          <mxGeometry width="50" height="50" relative="1" as="geometry">
            <mxPoint x="315.6" y="-60.567999999999984" as="sourcePoint" />
            <mxPoint x="930" y="-140" as="targetPoint" />
            <Array as="points">
              <mxPoint x="827" y="-60" />
              <mxPoint x="827" y="-140" />
            </Array>
          </mxGeometry>
        </mxCell>
        <mxCell id="4jUgr5Qq2yorTok59dUO-220" style="edgeStyle=orthogonalEdgeStyle;rounded=0;orthogonalLoop=1;jettySize=auto;html=1;entryX=0.5;entryY=0;entryDx=0;entryDy=0;fontSize=14;startArrow=none;startFill=0;endArrow=classic;endFill=1;labelBackgroundColor=none;fillColor=none;fontFamily=Times New Roman;" parent="1" target="4jUgr5Qq2yorTok59dUO-217" edge="1">
          <mxGeometry relative="1" as="geometry">
            <mxPoint x="812" y="-69" as="sourcePoint" />
          </mxGeometry>
        </mxCell>
        <mxCell id="4jUgr5Qq2yorTok59dUO-200" style="edgeStyle=orthogonalEdgeStyle;rounded=0;orthogonalLoop=1;jettySize=auto;html=1;exitX=0.5;exitY=1;exitDx=0;exitDy=0;entryX=0.5;entryY=0;entryDx=0;entryDy=0;fontSize=24;startArrow=diamond;startFill=1;endArrow=none;endFill=0;labelBackgroundColor=none;fillColor=none;fontFamily=Times New Roman;" parent="1" source="8q9m0iv9esHsS-CNKXh9-23" target="4jUgr5Qq2yorTok59dUO-195" edge="1">
          <mxGeometry relative="1" as="geometry">
            <Array as="points">
              <mxPoint x="396" y="88" />
              <mxPoint x="396" y="88" />
            </Array>
          </mxGeometry>
        </mxCell>
        <mxCell id="4jUgr5Qq2yorTok59dUO-202" value="1..*" style="edgeLabel;html=1;align=center;verticalAlign=middle;resizable=0;points=[];fontSize=11;labelBackgroundColor=none;fillColor=none;fontFamily=Times New Roman;" parent="4jUgr5Qq2yorTok59dUO-200" vertex="1" connectable="0">
          <mxGeometry x="0.6597" y="-1" relative="1" as="geometry">
            <mxPoint x="-11" y="-8" as="offset" />
          </mxGeometry>
        </mxCell>
        <mxCell id="4jUgr5Qq2yorTok59dUO-191" value="&lt;font style=&quot;font-size: 14px&quot;&gt;Service level&lt;/font&gt;" style="text;html=1;strokeColor=none;fillColor=none;align=center;verticalAlign=middle;whiteSpace=wrap;rounded=0;horizontal=0;fontStyle=1;fontSize=14;labelBackgroundColor=none;fontFamily=Times New Roman;" parent="1" vertex="1">
          <mxGeometry x="318" y="-130" width="30" height="66" as="geometry" />
        </mxCell>
        <mxCell id="4jUgr5Qq2yorTok59dUO-197" style="edgeStyle=orthogonalEdgeStyle;rounded=0;orthogonalLoop=1;jettySize=auto;html=1;exitX=0.454;exitY=1.015;exitDx=0;exitDy=0;fontSize=24;startArrow=diamond;startFill=1;endArrow=none;endFill=0;exitPerimeter=0;labelBackgroundColor=none;fillColor=none;fontFamily=Times New Roman;" parent="1" source="4jUgr5Qq2yorTok59dUO-196" edge="1">
          <mxGeometry relative="1" as="geometry">
            <mxPoint x="398.0999999999999" y="138.5239999999999" as="sourcePoint" />
            <mxPoint x="502" y="150" as="targetPoint" />
            <Array as="points">
              <mxPoint x="397" y="150" />
            </Array>
          </mxGeometry>
        </mxCell>
        <mxCell id="4jUgr5Qq2yorTok59dUO-195" value="Decision" style="swimlane;fontStyle=1;childLayout=stackLayout;horizontal=1;startSize=26;fillColor=none;horizontalStack=0;resizeParent=1;resizeParentMax=0;resizeLast=0;collapsible=1;marginBottom=0;spacingLeft=0;labelBackgroundColor=none;fontFamily=Times New Roman;" parent="1" vertex="1">
          <mxGeometry x="362" y="98" width="78" height="40" as="geometry" />
        </mxCell>
        <mxCell id="4jUgr5Qq2yorTok59dUO-196" value="id: String" style="text;strokeColor=none;fillColor=none;align=left;verticalAlign=top;spacingLeft=0;spacingRight=0;overflow=hidden;rotatable=0;points=[[0,0.5],[1,0.5]];portConstraint=eastwest;spacingTop=-6;labelBackgroundColor=none;fontFamily=Times New Roman;" parent="4jUgr5Qq2yorTok59dUO-195" vertex="1">
          <mxGeometry y="26" width="78" height="14" as="geometry" />
        </mxCell>
        <mxCell id="4jUgr5Qq2yorTok59dUO-203" value="&lt;font style=&quot;font-size: 14px&quot;&gt;Processing level&lt;/font&gt;" style="text;html=1;strokeColor=none;fillColor=none;align=center;verticalAlign=middle;whiteSpace=wrap;rounded=0;horizontal=0;fontStyle=1;fontSize=14;labelBackgroundColor=none;fontFamily=Times New Roman;" parent="1" vertex="1">
          <mxGeometry x="319" y="-50" width="30" height="50" as="geometry" />
        </mxCell>
        <mxCell id="4jUgr5Qq2yorTok59dUO-204" value="&lt;font style=&quot;font-size: 14px&quot;&gt;Data &lt;br style=&quot;font-size: 14px&quot;&gt;level&lt;/font&gt;" style="text;html=1;strokeColor=none;fillColor=none;align=center;verticalAlign=middle;whiteSpace=wrap;rounded=0;horizontal=0;fontStyle=1;fontSize=14;labelBackgroundColor=none;fontFamily=Times New Roman;" parent="1" vertex="1">
          <mxGeometry x="319" y="-10" width="30" height="360" as="geometry" />
        </mxCell>
        <mxCell id="4jUgr5Qq2yorTok59dUO-217" value="..." style="swimlane;fontStyle=1;childLayout=stackLayout;horizontal=1;startSize=26;fillColor=none;horizontalStack=0;resizeParent=1;resizeParentMax=0;resizeLast=0;collapsible=1;marginBottom=0;labelBackgroundColor=none;fontFamily=Times New Roman;" parent="1" vertex="1">
          <mxGeometry x="800" y="-50" width="24" height="42" as="geometry" />
        </mxCell>
        <mxCell id="4jUgr5Qq2yorTok59dUO-218" value="..." style="text;strokeColor=none;fillColor=none;align=center;verticalAlign=top;spacingLeft=3;spacingRight=4;overflow=hidden;rotatable=0;points=[[0,0.5],[1,0.5]];portConstraint=eastwest;spacingTop=-6;labelBackgroundColor=none;fontFamily=Times New Roman;" parent="4jUgr5Qq2yorTok59dUO-217" vertex="1">
          <mxGeometry y="26" width="24" height="16" as="geometry" />
        </mxCell>
        <mxCell id="4jUgr5Qq2yorTok59dUO-233" style="edgeStyle=orthogonalEdgeStyle;rounded=0;orthogonalLoop=1;jettySize=auto;html=1;entryX=0.5;entryY=0;entryDx=0;entryDy=0;labelBackgroundColor=none;fontSize=20;startArrow=diamond;startFill=1;endArrow=none;endFill=0;fillColor=none;fontFamily=Times New Roman;exitX=0.528;exitY=1.04;exitDx=0;exitDy=0;exitPerimeter=0;" parent="1" source="4jUgr5Qq2yorTok59dUO-223" edge="1">
          <mxGeometry relative="1" as="geometry">
            <mxPoint x="395.42500000000007" y="202.798" as="sourcePoint" />
            <mxPoint x="399" y="214" as="targetPoint" />
            <Array as="points">
              <mxPoint x="399" y="214" />
            </Array>
          </mxGeometry>
        </mxCell>
        <mxCell id="4jUgr5Qq2yorTok59dUO-261" style="edgeStyle=orthogonalEdgeStyle;rounded=0;orthogonalLoop=1;jettySize=auto;html=1;labelBackgroundColor=none;fontSize=20;startArrow=none;startFill=0;endArrow=none;endFill=0;fillColor=none;fontFamily=Times New Roman;exitX=0.005;exitY=1.012;exitDx=0;exitDy=0;exitPerimeter=0;" parent="1" source="4jUgr5Qq2yorTok59dUO-262" edge="1">
          <mxGeometry relative="1" as="geometry">
            <mxPoint x="448" y="340" as="sourcePoint" />
            <mxPoint x="448" y="355" as="targetPoint" />
            <Array as="points" />
          </mxGeometry>
        </mxCell>
        <mxCell id="4jUgr5Qq2yorTok59dUO-222" value="Script" style="swimlane;fontStyle=1;childLayout=stackLayout;horizontal=1;startSize=26;fillColor=none;horizontalStack=0;resizeParent=1;resizeParentMax=0;resizeLast=0;collapsible=1;marginBottom=0;spacingLeft=0;labelBackgroundColor=none;fontFamily=Times New Roman;" parent="1" vertex="1">
          <mxGeometry x="369.5" y="160" width="55" height="40" as="geometry" />
        </mxCell>
        <mxCell id="4jUgr5Qq2yorTok59dUO-223" value="uri: String" style="text;strokeColor=none;fillColor=none;align=left;verticalAlign=top;spacingLeft=1;spacingRight=0;overflow=hidden;rotatable=0;points=[[0,0.5],[1,0.5]];portConstraint=eastwest;spacingTop=-8;labelBackgroundColor=none;fontFamily=Times New Roman;" parent="4jUgr5Qq2yorTok59dUO-222" vertex="1">
          <mxGeometry y="26" width="55" height="14" as="geometry" />
        </mxCell>
        <mxCell id="4jUgr5Qq2yorTok59dUO-224" value="&lt;p style=&quot;margin: 0px ; margin-top: 4px ; text-align: center&quot;&gt;&lt;i&gt;&amp;lt;&amp;lt;enum&amp;gt;&amp;gt;&lt;/i&gt;&lt;br&gt;&lt;b&gt;Platform&lt;/b&gt;&lt;/p&gt;&lt;hr size=&quot;1&quot;&gt;&lt;p style=&quot;margin: 0px ; margin-left: 4px&quot;&gt;SEMIO&lt;/p&gt;&lt;p style=&quot;margin: 0px ; margin-left: 4px&quot;&gt;GRASSHOPPER&lt;/p&gt;&lt;p style=&quot;margin: 0px ; margin-left: 4px&quot;&gt;PYTHON&lt;/p&gt;&lt;p style=&quot;margin: 0px ; margin-left: 4px&quot;&gt;...&lt;/p&gt;" style="verticalAlign=top;align=left;overflow=fill;fontSize=12;fontFamily=Times New Roman;html=1;labelBackgroundColor=none;fillColor=none;spacingLeft=0;" parent="1" vertex="1">
          <mxGeometry x="351" y="214" width="92" height="102" as="geometry" />
        </mxCell>
        <mxCell id="4jUgr5Qq2yorTok59dUO-237" value="Definition" style="swimlane;fontStyle=1;align=center;verticalAlign=top;childLayout=stackLayout;horizontal=1;startSize=26;horizontalStack=0;resizeParent=1;resizeParentMax=0;resizeLast=0;collapsible=1;marginBottom=0;strokeColor=default;labelBackgroundColor=none;fillColor=none;fontFamily=Times New Roman;" parent="1" vertex="1">
          <mxGeometry x="573.5" y="360" width="188.5" height="60" as="geometry" />
        </mxCell>
        <mxCell id="4jUgr5Qq2yorTok59dUO-238" value="" style="line;strokeWidth=1;fillColor=none;align=left;verticalAlign=middle;spacingTop=-1;spacingLeft=3;spacingRight=3;rotatable=0;labelPosition=right;points=[];portConstraint=eastwest;labelBackgroundColor=none;fontFamily=Times New Roman;" parent="4jUgr5Qq2yorTok59dUO-237" vertex="1">
          <mxGeometry y="26" width="188.5" height="8" as="geometry" />
        </mxCell>
        <mxCell id="4jUgr5Qq2yorTok59dUO-239" value="GetPrototype(Plan):Prototype&#xa;GetConnectionPose(Plan,Model):Pose" style="text;strokeColor=none;fillColor=none;align=left;verticalAlign=top;spacingLeft=0;spacingRight=0;overflow=hidden;rotatable=0;points=[[0,0.5],[1,0.5]];portConstraint=eastwest;labelBackgroundColor=none;spacingTop=-10;fontFamily=Times New Roman;" parent="4jUgr5Qq2yorTok59dUO-237" vertex="1">
          <mxGeometry y="34" width="188.5" height="26" as="geometry" />
        </mxCell>
        <mxCell id="4jUgr5Qq2yorTok59dUO-265" style="edgeStyle=orthogonalEdgeStyle;rounded=0;orthogonalLoop=1;jettySize=auto;html=1;exitX=0.5;exitY=0;exitDx=0;exitDy=0;labelBackgroundColor=none;fontSize=20;startArrow=none;startFill=0;endArrow=none;endFill=0;fillColor=none;fontFamily=Times New Roman;" parent="1" source="4jUgr5Qq2yorTok59dUO-255" edge="1">
          <mxGeometry relative="1" as="geometry">
            <mxPoint x="467" y="355" as="targetPoint" />
            <mxPoint x="407.5" y="367" as="sourcePoint" />
            <Array as="points">
              <mxPoint x="411" y="355" />
            </Array>
          </mxGeometry>
        </mxCell>
        <mxCell id="4jUgr5Qq2yorTok59dUO-255" value="Transformation" style="swimlane;fontStyle=1;align=center;verticalAlign=top;childLayout=stackLayout;horizontal=1;startSize=26;horizontalStack=0;resizeParent=1;resizeParentMax=0;resizeLast=0;collapsible=1;marginBottom=0;strokeColor=default;labelBackgroundColor=none;fillColor=none;fontFamily=Times New Roman;" parent="1" vertex="1">
          <mxGeometry x="351" y="360" width="119" height="60" as="geometry" />
        </mxCell>
        <mxCell id="4jUgr5Qq2yorTok59dUO-256" value="" style="line;strokeWidth=1;fillColor=none;align=left;verticalAlign=middle;spacingTop=-1;spacingLeft=3;spacingRight=3;rotatable=0;labelPosition=right;points=[];portConstraint=eastwest;labelBackgroundColor=none;fontFamily=Times New Roman;" parent="4jUgr5Qq2yorTok59dUO-255" vertex="1">
          <mxGeometry y="26" width="119" height="8" as="geometry" />
        </mxCell>
        <mxCell id="4jUgr5Qq2yorTok59dUO-257" value="GetLayout&#xa;    (Layout,Plan):Layout" style="text;strokeColor=none;fillColor=none;align=left;verticalAlign=top;spacingLeft=0;spacingRight=0;overflow=hidden;rotatable=0;points=[[0,0.5],[1,0.5]];portConstraint=eastwest;labelBackgroundColor=none;spacingTop=-11;fontFamily=Times New Roman;" parent="4jUgr5Qq2yorTok59dUO-255" vertex="1">
          <mxGeometry y="34" width="119" height="26" as="geometry" />
        </mxCell>
        <mxCell id="4jUgr5Qq2yorTok59dUO-258" value="Modification" style="swimlane;fontStyle=1;align=center;verticalAlign=top;childLayout=stackLayout;horizontal=1;startSize=26;horizontalStack=0;resizeParent=1;resizeParentMax=0;resizeLast=0;collapsible=1;marginBottom=0;strokeColor=default;labelBackgroundColor=none;fillColor=none;fontFamily=Times New Roman;" parent="1" vertex="1">
          <mxGeometry x="765" y="360" width="149.5" height="50" as="geometry" />
        </mxCell>
        <mxCell id="4jUgr5Qq2yorTok59dUO-259" value="" style="line;strokeWidth=1;fillColor=none;align=left;verticalAlign=middle;spacingTop=-1;spacingLeft=3;spacingRight=3;rotatable=0;labelPosition=right;points=[];portConstraint=eastwest;labelBackgroundColor=none;fontFamily=Times New Roman;" parent="4jUgr5Qq2yorTok59dUO-258" vertex="1">
          <mxGeometry y="26" width="149.5" height="8" as="geometry" />
        </mxCell>
        <mxCell id="4jUgr5Qq2yorTok59dUO-260" value="GetModel(Model,Plan):Model" style="text;strokeColor=none;fillColor=none;align=left;verticalAlign=top;spacingLeft=0;spacingRight=0;overflow=hidden;rotatable=0;points=[[0,0.5],[1,0.5]];portConstraint=eastwest;labelBackgroundColor=none;spacingTop=-8;fontFamily=Times New Roman;" parent="4jUgr5Qq2yorTok59dUO-258" vertex="1">
          <mxGeometry y="34" width="149.5" height="16" as="geometry" />
        </mxCell>
        <mxCell id="4jUgr5Qq2yorTok59dUO-262" value="" style="shape=requiredInterface;html=1;verticalLabelPosition=bottom;sketch=0;labelBackgroundColor=none;fontSize=20;strokeColor=default;fillColor=none;align=center;fontFamily=Times New Roman;" parent="1" vertex="1">
          <mxGeometry x="448" y="311" width="6.5" height="17.72" as="geometry" />
        </mxCell>
        <mxCell id="4jUgr5Qq2yorTok59dUO-264" value="" style="edgeStyle=orthogonalEdgeStyle;rounded=0;orthogonalLoop=1;jettySize=auto;html=1;exitX=1;exitY=0.5;exitDx=0;exitDy=0;labelBackgroundColor=none;fontSize=20;startArrow=block;startFill=0;endArrow=none;endFill=0;fillColor=none;fontFamily=Times New Roman;entryX=0;entryY=-0.016;entryDx=0;entryDy=0;entryPerimeter=0;" parent="1" source="4jUgr5Qq2yorTok59dUO-222" target="4jUgr5Qq2yorTok59dUO-262" edge="1">
          <mxGeometry relative="1" as="geometry">
            <mxPoint x="425.5" y="161" as="sourcePoint" />
            <mxPoint x="445" y="317" as="targetPoint" />
            <Array as="points">
              <mxPoint x="448" y="180" />
            </Array>
          </mxGeometry>
        </mxCell>
        <mxCell id="4jUgr5Qq2yorTok59dUO-266" style="edgeStyle=orthogonalEdgeStyle;rounded=0;orthogonalLoop=1;jettySize=auto;html=1;labelBackgroundColor=none;fontSize=20;startArrow=none;startFill=0;endArrow=none;endFill=0;fillColor=none;exitX=0.5;exitY=0;exitDx=0;exitDy=0;fontFamily=Times New Roman;" parent="1" source="4jUgr5Qq2yorTok59dUO-258" edge="1">
          <mxGeometry relative="1" as="geometry">
            <mxPoint x="668" y="355" as="targetPoint" />
            <mxPoint x="829.7499999999999" y="367" as="sourcePoint" />
            <Array as="points">
              <mxPoint x="840" y="355" />
            </Array>
          </mxGeometry>
        </mxCell>
        <mxCell id="4jUgr5Qq2yorTok59dUO-270" style="edgeStyle=orthogonalEdgeStyle;rounded=0;orthogonalLoop=1;jettySize=auto;html=1;labelBackgroundColor=none;fontSize=20;startArrow=none;startFill=0;endArrow=none;endFill=0;fillColor=none;exitX=0.5;exitY=0;exitDx=0;exitDy=0;fontFamily=Times New Roman;" parent="1" source="8q9m0iv9esHsS-CNKXh9-45" edge="1">
          <mxGeometry relative="1" as="geometry">
            <mxPoint x="839" y="355" as="targetPoint" />
            <mxPoint x="929" y="360" as="sourcePoint" />
            <Array as="points">
              <mxPoint x="925" y="355" />
            </Array>
          </mxGeometry>
        </mxCell>
        <mxCell id="JXOB9crjFDdLyb_UOTAz-1" value="&lt;font style=&quot;font-size: 14px&quot;&gt;Instance level&lt;/font&gt;" style="text;html=1;strokeColor=none;fillColor=none;align=center;verticalAlign=middle;whiteSpace=wrap;rounded=0;horizontal=0;fontStyle=1;fontSize=14;labelBackgroundColor=none;fontFamily=Times New Roman;" parent="1" vertex="1">
          <mxGeometry x="319" y="360" width="30" height="50" as="geometry" />
        </mxCell>
        <mxCell id="JXOB9crjFDdLyb_UOTAz-2" value="" style="endArrow=none;dashed=1;html=1;rounded=0;labelBackgroundColor=none;fillColor=none;fontFamily=Times New Roman;" parent="1" edge="1">
          <mxGeometry width="50" height="50" relative="1" as="geometry">
            <mxPoint x="321" y="351" as="sourcePoint" />
            <mxPoint x="940" y="351" as="targetPoint" />
          </mxGeometry>
        </mxCell>
        <mxCell id="8q9m0iv9esHsS-CNKXh9-5" style="edgeStyle=orthogonalEdgeStyle;rounded=0;orthogonalLoop=1;jettySize=auto;html=1;exitX=0;exitY=0.5;exitDx=0;exitDy=0;entryX=1;entryY=0.5;entryDx=0;entryDy=0;startArrow=diamond;startFill=1;endArrow=none;endFill=0;fontFamily=Times New Roman;" parent="1" source="8q9m0iv9esHsS-CNKXh9-1" target="4jUgr5Qq2yorTok59dUO-126" edge="1">
          <mxGeometry relative="1" as="geometry" />
        </mxCell>
        <mxCell id="8q9m0iv9esHsS-CNKXh9-1" value="Variant" style="swimlane;fontStyle=1;childLayout=stackLayout;horizontal=1;startSize=26;fillColor=none;horizontalStack=0;resizeParent=1;resizeParentMax=0;resizeLast=0;collapsible=1;marginBottom=0;spacingLeft=0;labelBackgroundColor=none;fontFamily=Times New Roman;" parent="1" vertex="1">
          <mxGeometry x="728.75" y="168" width="133.25" height="54" as="geometry" />
        </mxCell>
        <mxCell id="8q9m0iv9esHsS-CNKXh9-2" value="modification_plan_hash&#xa;    : String " style="text;strokeColor=none;fillColor=none;align=left;verticalAlign=top;spacingLeft=0;spacingRight=1;overflow=hidden;rotatable=0;points=[[0,0.5],[1,0.5]];portConstraint=eastwest;spacingTop=-8;labelBackgroundColor=none;fontFamily=Times New Roman;" parent="8q9m0iv9esHsS-CNKXh9-1" vertex="1">
          <mxGeometry y="26" width="133.25" height="28" as="geometry" />
        </mxCell>
        <mxCell id="8q9m0iv9esHsS-CNKXh9-6" style="edgeStyle=orthogonalEdgeStyle;rounded=0;orthogonalLoop=1;jettySize=auto;html=1;labelBackgroundColor=none;fontSize=20;startArrow=none;startFill=0;endArrow=none;endFill=0;fillColor=none;fontFamily=Times New Roman;exitX=0.5;exitY=0;exitDx=0;exitDy=0;" parent="1" source="4jUgr5Qq2yorTok59dUO-237" edge="1">
          <mxGeometry relative="1" as="geometry">
            <mxPoint x="528" y="355" as="targetPoint" />
            <mxPoint x="677.75" y="367" as="sourcePoint" />
            <Array as="points">
              <mxPoint x="680" y="355" />
            </Array>
          </mxGeometry>
        </mxCell>
        <mxCell id="8q9m0iv9esHsS-CNKXh9-8" value="Scope" style="swimlane;fontStyle=1;childLayout=stackLayout;horizontal=1;startSize=26;fillColor=none;horizontalStack=0;resizeParent=1;resizeParentMax=0;resizeLast=0;collapsible=1;marginBottom=0;labelBackgroundColor=none;fontFamily=Times New Roman;spacingLeft=0;" parent="1" vertex="1">
          <mxGeometry x="543.5" y="251" width="67.5" height="60" as="geometry" />
        </mxCell>
        <mxCell id="8q9m0iv9esHsS-CNKXh9-9" value="name: String&#xa;order: int&#xa;" style="text;strokeColor=none;fillColor=none;align=left;verticalAlign=top;spacingLeft=1;spacingRight=0;overflow=hidden;rotatable=0;points=[[0,0.5],[1,0.5]];portConstraint=eastwest;spacingTop=-2;labelBackgroundColor=none;fontFamily=Times New Roman;" parent="8q9m0iv9esHsS-CNKXh9-8" vertex="1">
          <mxGeometry y="26" width="67.5" height="34" as="geometry" />
        </mxCell>
        <mxCell id="8q9m0iv9esHsS-CNKXh9-42" style="edgeStyle=orthogonalEdgeStyle;rounded=0;orthogonalLoop=1;jettySize=auto;html=1;exitX=0.5;exitY=0;exitDx=0;exitDy=0;entryX=0.964;entryY=1.006;entryDx=0;entryDy=0;entryPerimeter=0;fontFamily=Times New Roman;startArrow=classic;startFill=1;endArrow=none;endFill=0;" parent="1" source="8q9m0iv9esHsS-CNKXh9-23" edge="1">
          <mxGeometry relative="1" as="geometry">
            <mxPoint x="401" y="41" as="sourcePoint" />
            <mxPoint x="513.9520000000002" y="-68.75999999999999" as="targetPoint" />
            <Array as="points">
              <mxPoint x="396" />
              <mxPoint x="514" />
            </Array>
          </mxGeometry>
        </mxCell>
        <mxCell id="8q9m0iv9esHsS-CNKXh9-23" value="Sequence" style="swimlane;fontStyle=1;childLayout=stackLayout;horizontal=1;startSize=31;fillColor=none;horizontalStack=0;resizeParent=1;resizeParentMax=0;resizeLast=0;collapsible=1;marginBottom=0;spacingLeft=0;labelBackgroundColor=none;fontFamily=Times New Roman;" parent="1" vertex="1">
          <mxGeometry x="367" y="59" width="58" height="18.5" as="geometry" />
        </mxCell>
        <mxCell id="8q9m0iv9esHsS-CNKXh9-31" value="Scheme" style="swimlane;fontStyle=1;align=center;verticalAlign=top;childLayout=stackLayout;horizontal=1;startSize=26;horizontalStack=0;resizeParent=1;resizeParentMax=0;resizeLast=0;collapsible=1;marginBottom=0;strokeColor=default;labelBackgroundColor=none;fillColor=none;fontFamily=Times New Roman;" parent="1" vertex="1">
          <mxGeometry x="472.82" y="360" width="97.18" height="60" as="geometry" />
        </mxCell>
        <mxCell id="8q9m0iv9esHsS-CNKXh9-32" value="" style="line;strokeWidth=1;fillColor=none;align=left;verticalAlign=middle;spacingTop=-1;spacingLeft=3;spacingRight=3;rotatable=0;labelPosition=right;points=[];portConstraint=eastwest;labelBackgroundColor=none;fontFamily=Times New Roman;" parent="8q9m0iv9esHsS-CNKXh9-31" vertex="1">
          <mxGeometry y="26" width="97.18" height="8" as="geometry" />
        </mxCell>
        <mxCell id="8q9m0iv9esHsS-CNKXh9-33" value="GetSequence&#xa;    (Plan):Sequence" style="text;strokeColor=none;fillColor=none;align=left;verticalAlign=top;spacingLeft=0;spacingRight=0;overflow=hidden;rotatable=0;points=[[0,0.5],[1,0.5]];portConstraint=eastwest;labelBackgroundColor=none;spacingTop=-10;fontFamily=Times New Roman;" parent="8q9m0iv9esHsS-CNKXh9-31" vertex="1">
          <mxGeometry y="34" width="97.18" height="26" as="geometry" />
        </mxCell>
        <mxCell id="8q9m0iv9esHsS-CNKXh9-34" style="edgeStyle=orthogonalEdgeStyle;rounded=0;orthogonalLoop=1;jettySize=auto;html=1;exitX=0.5;exitY=0;exitDx=0;exitDy=0;labelBackgroundColor=none;fontSize=20;startArrow=none;startFill=0;endArrow=none;endFill=0;fillColor=none;fontFamily=Times New Roman;" parent="1" source="8q9m0iv9esHsS-CNKXh9-31" edge="1">
          <mxGeometry relative="1" as="geometry">
            <mxPoint x="467" y="355" as="targetPoint" />
            <mxPoint x="528" y="367" as="sourcePoint" />
            <Array as="points">
              <mxPoint x="528" y="355" />
            </Array>
          </mxGeometry>
        </mxCell>
        <mxCell id="8q9m0iv9esHsS-CNKXh9-45" value="..." style="swimlane;fontStyle=1;align=center;verticalAlign=top;childLayout=stackLayout;horizontal=1;startSize=26;horizontalStack=0;resizeParent=1;resizeParentMax=0;resizeLast=0;collapsible=1;marginBottom=0;strokeColor=default;labelBackgroundColor=none;fillColor=none;fontFamily=Times New Roman;" parent="1" vertex="1">
          <mxGeometry x="918" y="360" width="19" height="50" as="geometry" />
        </mxCell>
        <mxCell id="8q9m0iv9esHsS-CNKXh9-46" value="" style="line;strokeWidth=1;fillColor=none;align=left;verticalAlign=middle;spacingTop=-1;spacingLeft=3;spacingRight=3;rotatable=0;labelPosition=right;points=[];portConstraint=eastwest;labelBackgroundColor=none;fontFamily=Times New Roman;" parent="8q9m0iv9esHsS-CNKXh9-45" vertex="1">
          <mxGeometry y="26" width="19" height="8" as="geometry" />
        </mxCell>
        <mxCell id="8q9m0iv9esHsS-CNKXh9-47" value="..." style="text;strokeColor=none;fillColor=none;align=center;verticalAlign=top;spacingLeft=0;spacingRight=0;overflow=hidden;rotatable=0;points=[[0,0.5],[1,0.5]];portConstraint=eastwest;labelBackgroundColor=none;fontFamily=Times New Roman;spacingTop=-10;" parent="8q9m0iv9esHsS-CNKXh9-45" vertex="1">
          <mxGeometry y="34" width="19" height="16" as="geometry" />
        </mxCell>
        <mxCell id="8q9m0iv9esHsS-CNKXh9-51" value="..." style="swimlane;fontStyle=1;align=center;verticalAlign=top;childLayout=stackLayout;horizontal=1;startSize=26;horizontalStack=0;resizeParent=1;resizeParentMax=0;resizeLast=0;collapsible=1;marginBottom=0;strokeColor=default;labelBackgroundColor=none;fillColor=none;fontFamily=Times New Roman;" parent="1" vertex="1">
          <mxGeometry x="806" y="-143" width="14" height="74" as="geometry" />
        </mxCell>
        <mxCell id="8q9m0iv9esHsS-CNKXh9-52" value="" style="line;strokeWidth=1;fillColor=none;align=left;verticalAlign=middle;spacingTop=-1;spacingLeft=3;spacingRight=3;rotatable=0;labelPosition=right;points=[];portConstraint=eastwest;labelBackgroundColor=none;fontFamily=Times New Roman;" parent="8q9m0iv9esHsS-CNKXh9-51" vertex="1">
          <mxGeometry y="26" width="14" height="8" as="geometry" />
        </mxCell>
        <mxCell id="8q9m0iv9esHsS-CNKXh9-53" value="..." style="text;strokeColor=none;fillColor=none;align=left;verticalAlign=top;spacingLeft=0;spacingRight=0;overflow=hidden;rotatable=0;points=[[0,0.5],[1,0.5]];portConstraint=eastwest;labelBackgroundColor=none;spacingTop=-11;fontFamily=Times New Roman;" parent="8q9m0iv9esHsS-CNKXh9-51" vertex="1">
          <mxGeometry y="34" width="14" height="40" as="geometry" />
        </mxCell>
        <mxCell id="8q9m0iv9esHsS-CNKXh9-68" value="" style="group" parent="1" vertex="1" connectable="0">
          <mxGeometry x="833" y="-111.5" width="107" height="81" as="geometry" />
        </mxCell>
        <mxCell id="8q9m0iv9esHsS-CNKXh9-55" value="" style="endArrow=classic;startArrow=none;html=1;rounded=0;fontFamily=Times New Roman;startFill=0;" parent="8q9m0iv9esHsS-CNKXh9-68" edge="1">
          <mxGeometry width="50" height="50" relative="1" as="geometry">
            <mxPoint x="5.5" y="12" as="sourcePoint" />
            <mxPoint x="25.5" y="12" as="targetPoint" />
          </mxGeometry>
        </mxCell>
        <mxCell id="8q9m0iv9esHsS-CNKXh9-58" value=": depends on" style="text;html=1;align=left;verticalAlign=middle;resizable=0;points=[];autosize=1;strokeColor=none;fillColor=none;fontFamily=Times New Roman;" parent="8q9m0iv9esHsS-CNKXh9-68" vertex="1">
          <mxGeometry x="27" width="80" height="20" as="geometry" />
        </mxCell>
        <mxCell id="8q9m0iv9esHsS-CNKXh9-59" value="" style="endArrow=none;startArrow=diamond;html=1;rounded=0;fontFamily=Times New Roman;startFill=1;endFill=0;" parent="8q9m0iv9esHsS-CNKXh9-68" edge="1">
          <mxGeometry width="50" height="50" relative="1" as="geometry">
            <mxPoint x="5.5" y="50" as="sourcePoint" />
            <mxPoint x="25.5" y="50" as="targetPoint" />
          </mxGeometry>
        </mxCell>
        <mxCell id="8q9m0iv9esHsS-CNKXh9-60" value=": has one" style="text;html=1;align=left;verticalAlign=middle;resizable=0;points=[];autosize=1;strokeColor=none;fillColor=none;fontFamily=Times New Roman;" parent="8q9m0iv9esHsS-CNKXh9-68" vertex="1">
          <mxGeometry x="26" y="38" width="60" height="20" as="geometry" />
        </mxCell>
        <mxCell id="8q9m0iv9esHsS-CNKXh9-61" value="" style="endArrow=none;startArrow=diamond;html=1;rounded=0;fontFamily=Times New Roman;startFill=1;endFill=0;" parent="8q9m0iv9esHsS-CNKXh9-68" edge="1">
          <mxGeometry width="50" height="50" relative="1" as="geometry">
            <mxPoint x="5.5" y="70" as="sourcePoint" />
            <mxPoint x="25.5" y="70" as="targetPoint" />
          </mxGeometry>
        </mxCell>
        <mxCell id="8q9m0iv9esHsS-CNKXh9-63" value="n..*" style="edgeLabel;html=1;align=center;verticalAlign=middle;resizable=0;points=[];fontFamily=Times New Roman;labelBackgroundColor=none;" parent="8q9m0iv9esHsS-CNKXh9-61" vertex="1" connectable="0">
          <mxGeometry x="0.47" y="2" relative="1" as="geometry">
            <mxPoint y="-4" as="offset" />
          </mxGeometry>
        </mxCell>
        <mxCell id="8q9m0iv9esHsS-CNKXh9-62" value=": has at least n" style="text;html=1;align=left;verticalAlign=middle;resizable=0;points=[];autosize=1;strokeColor=none;fillColor=none;fontFamily=Times New Roman;" parent="8q9m0iv9esHsS-CNKXh9-68" vertex="1">
          <mxGeometry x="26" y="58" width="80" height="20" as="geometry" />
        </mxCell>
        <mxCell id="8q9m0iv9esHsS-CNKXh9-64" value="" style="endArrow=block;startArrow=none;html=1;rounded=0;fontFamily=Times New Roman;startFill=0;endFill=0;" parent="8q9m0iv9esHsS-CNKXh9-68" edge="1">
          <mxGeometry width="50" height="50" relative="1" as="geometry">
            <mxPoint x="5.5" y="32.99999999999977" as="sourcePoint" />
            <mxPoint x="25.5" y="32.99999999999977" as="targetPoint" />
          </mxGeometry>
        </mxCell>
        <mxCell id="8q9m0iv9esHsS-CNKXh9-65" value=": is a" style="text;html=1;align=left;verticalAlign=middle;resizable=0;points=[];autosize=1;strokeColor=none;fillColor=none;fontFamily=Times New Roman;" parent="8q9m0iv9esHsS-CNKXh9-68" vertex="1">
          <mxGeometry x="27" y="21" width="40" height="20" as="geometry" />
        </mxCell>
        <mxCell id="8q9m0iv9esHsS-CNKXh9-66" value="" style="rounded=1;whiteSpace=wrap;html=1;labelBackgroundColor=none;fontFamily=Times New Roman;align=left;fillColor=none;dashed=1;dashPattern=1 1;" parent="8q9m0iv9esHsS-CNKXh9-68" vertex="1">
          <mxGeometry y="1" width="100" height="80" as="geometry" />
        </mxCell>
        <mxCell id="8q9m0iv9esHsS-CNKXh9-69" value="LEGEND" style="text;html=1;align=center;verticalAlign=middle;resizable=0;points=[];autosize=1;strokeColor=none;fillColor=none;fontFamily=Times New Roman;fontStyle=1" parent="1" vertex="1">
          <mxGeometry x="846" y="-131.5" width="70" height="20" as="geometry" />
        </mxCell>
        <mxCell id="8q9m0iv9esHsS-CNKXh9-70" value="" style="endArrow=none;dashed=1;html=1;rounded=0;fontFamily=Times New Roman;" parent="1" edge="1">
          <mxGeometry width="50" height="50" relative="1" as="geometry">
            <mxPoint x="827" y="-60" as="sourcePoint" />
            <mxPoint x="930" y="-10" as="targetPoint" />
            <Array as="points">
              <mxPoint x="827" y="-10" />
            </Array>
          </mxGeometry>
        </mxCell>
        <mxCell id="nEK2P_jlJbkSmbsylBZb-1" value="DesignerService" style="swimlane;fontStyle=1;align=center;verticalAlign=top;childLayout=stackLayout;horizontal=1;startSize=26;horizontalStack=0;resizeParent=1;resizeParentMax=0;resizeLast=0;collapsible=1;marginBottom=0;strokeColor=default;labelBackgroundColor=none;fillColor=none;fontFamily=Times New Roman;" vertex="1" parent="1">
          <mxGeometry x="546.5" y="-180" width="146" height="74" as="geometry" />
        </mxCell>
        <mxCell id="nEK2P_jlJbkSmbsylBZb-2" value="" style="line;strokeWidth=1;fillColor=none;align=left;verticalAlign=middle;spacingTop=-1;spacingLeft=3;spacingRight=3;rotatable=0;labelPosition=right;points=[];portConstraint=eastwest;labelBackgroundColor=none;fontFamily=Times New Roman;" vertex="1" parent="nEK2P_jlJbkSmbsylBZb-1">
          <mxGeometry y="26" width="146" height="8" as="geometry" />
        </mxCell>
        <mxCell id="nEK2P_jlJbkSmbsylBZb-3" value="Design&#xa;    (DesignRequest)&#xa;        : Design" style="text;strokeColor=none;fillColor=none;align=left;verticalAlign=top;spacingLeft=0;spacingRight=0;overflow=hidden;rotatable=0;points=[[0,0.5],[1,0.5]];portConstraint=eastwest;labelBackgroundColor=none;spacingTop=-11;fontFamily=Times New Roman;" vertex="1" parent="nEK2P_jlJbkSmbsylBZb-1">
          <mxGeometry y="34" width="146" height="40" as="geometry" />
        </mxCell>
        <mxCell id="nEK2P_jlJbkSmbsylBZb-4" value="DesignRequest" style="swimlane;fontStyle=1;childLayout=stackLayout;horizontal=1;startSize=26;fillColor=none;horizontalStack=0;resizeParent=1;resizeParentMax=0;resizeLast=0;collapsible=1;marginBottom=0;labelBackgroundColor=none;fontFamily=Times New Roman;spacing=2;" vertex="1" parent="1">
          <mxGeometry x="614" y="-60" width="119" height="70" as="geometry" />
        </mxCell>
        <mxCell id="nEK2P_jlJbkSmbsylBZb-5" value="scheme_plan: Plan&#xa;initial_layout: Layout&#xa;target_language: Language" style="text;strokeColor=none;fillColor=none;align=left;verticalAlign=top;spacingLeft=3;spacingRight=4;overflow=hidden;rotatable=0;points=[[0,0.5],[1,0.5]];portConstraint=eastwest;spacingTop=-6;labelBackgroundColor=none;fontFamily=Times New Roman;" vertex="1" parent="nEK2P_jlJbkSmbsylBZb-4">
          <mxGeometry y="26" width="119" height="44" as="geometry" />
        </mxCell>
      </root>
    </mxGraphModel>
  </diagram>
</mxfile>
